PathFileType	4	(X/Y/Z)	C:/Users/beibeiliu/ov580/test_trc/User2\sequence.8_training_dense_right.trc
DataRate	CameraRate	NumFrames	NumMarkers	Units	OrigDataRate	OrigDataStartFrame	OrigNumFrames
120	120	18	19	mm	120	43	343
Frame#	Time	ThumbCMC			ThumbMCP			ThumbIP			ThumbTip			IndexMCP			IndexPIP			IndexTip			MiddleMCP			MiddlePIP			MiddleTip			RingMCP			RingPIP			RingTip			PinkyMCP			PinkyPIP			PinkyTip			BackHand1			BackHand2			BackHand3	
		X0	Y0	Z0	X1	Y1	Z1	X2	Y2	Z2	X3	Y3	Z3	X4	Y4	Z4	X5	Y5	Z5	X6	Y6	Z6	X7	Y7	Z7	X8	Y8	Z8	X9	Y9	Z9	X10	Y10	Z10	X11	Y11	Z11	X12	Y12	Z12	X13	Y13	Z13	X14	Y14	Z14	X15	Y15	Z15	X16	Y16	Z16	X17	Y17	Z17	X18	Y18	Z18	
42	0.35	187.853	69.6877	36.55	176.075	83.6333	11.0382	166.737	89.7725	-24.8664	156.673	90.042	-50.1504	197.795	25.8304	-38.2633	187.986	19.1409	-61.7519	168.34	13.6221	-84.108	194.638	-3.44362	-36.3992	181.561	-13.2179	-60.7758	158.336	-19.9319	-87.3241	184.525	-16.2109	-23.9686	172.495	-26.8494	-48.6812	156.159	-28.7973	-71.4976	168.41	-32.2953	0.868518	154.144	-42.1966	-20.9062	137.569	-47.2271	-43.1464	200.558	0.358042	34.9303	203.363	6.77936	62.3017	209.999	36.7046	33.733	
43	0.358333	176.027	79.8442	40.0619	158.746	85.8982	15.6847	144.326	92.7353	-15.0285	133.741	91.2074	-38.0668	202.857	54.3578	-35.7775	193.176	49.639	-69.9729	177.007	39.4481	-88.8108	211.346	28.5605	-38.3889	202.016	18.7216	-71.7805	183.743	5.76855	-95.4541	210.627	6.89747	-31.1153	200.219	-3.61437	-60.6323	184.845	-14.0597	-81.3092	203.779	-16.619	-13.3946	192.39	-24.8861	-37.6386	177.468	-34.0552	-57.9712	218.284	21.7312	28.4657	220.647	25.299	56.7521	212.195	54.7594	37.2794	
44	0.366667	166.692	74.799	41.2826	145.405	81.5721	21.952	127.546	86.5062	-7.49408	115.616	85.2709	-31.7929	195.642	73.7881	-38.9377	187.769	69.4124	-65.4148	174.736	50.9763	-89.1562	212.372	50.3686	-42.5333	207.018	37.1681	-74.0533	190.71	23.2096	-99.9428	218.695	26.0149	-38.0291	212.005	17.2088	-65.555	198.352	4.60177	-86.7988	217.823	6.59921	-19.482	211.936	-7.68003	-46.2197	199.008	-12.9059	-67.3473	225.311	38.1967	22.5238	223.176	37.8684	58.616	205.726	68.7736	39.1059	
45	0.375	157.922	72.6263	46.1919	133.977	77.4224	24.2614	113.607	82.0244	-3.25845	101.385	79.4024	-27.5991	185.704	82.6546	-30.819	175.174	80.5346	-61.8249	163.83	63.1191	-87.9936	206.061	68.0286	-39.7972	201.703	59.3479	-71.2144	189.513	38.6212	-99.6198	217.313	45.8766	-33.7125	213.416	35.7816	-65.5836	201.702	23.2263	-89.6194	226.032	20.8992	-22.8499	219.511	13.2554	-45.8984	213.05	-0.476268	-71.0204	220.199	52.5774	25.424	225.395	48.4489	59.6896	196.139	78.4832	39.2858	
46	0.383333	147.832	70.4677	50.5698	126.967	70.3149	29.6236	103.693	73.1484	-0.376581	94.8931	68.1646	-19.3691	169.866	90.4045	-27.4026	165.704	85.7929	-58.0411	156.231	68.1962	-86.021	197.601	77.9389	-36.2381	192.728	70.8953	-70.9181	183.653	50.9263	-97.7816	212.497	59.9151	-32.5688	209.462	51.4719	-64.5497	198.764	37.5969	-89.7393	227.808	34.7868	-23.7538	223.185	23.8851	-51.5973	213.446	17.8863	-72.0802	219.06	59.5829	22.9759	221.691	58.3868	56.3057	190.49	79.9215	42.9225	
47	0.391667	146.237	65.5122	55.3725	118.425	65.9327	32.9763	97.0183	66.1951	6.57503	90.984	61.6036	-18.934	158.462	94.1479	-22.5039	155.943	90.5146	-55.8971	144.293	77.3431	-80.1351	190.542	85.6737	-35.6359	183.899	79.365	-71.4077	173.496	60.8983	-98.6932	207.164	69.4846	-31.1459	206.01	61.461	-64.745	194.929	50.015	-88.0031	222.663	47.0114	-22.78	218.121	40.2621	-49.4958	213.224	32.0601	-72.6965	214.372	69.1565	28.0579	214.45	65.9702	61.7392	181.752	82.7868	49.1769	
48	0.4	138.631	63.4642	56.8811	113.219	60.6301	36.8508	92.5046	60.3423	6.63184	83.5344	55.0582	-13.4918	151.088	96.0578	-25.7049	141.701	94.5011	-49.8169	138.873	79.1762	-76.8249	181.725	90.8296	-33.8135	174.529	86.4684	-66.921	166.592	67.2347	-96.1459	198.335	77.9076	-31.5315	198.3	71.8779	-59.5825	189.08	55.1778	-90.9161	218.139	54.5584	-20.5048	219.369	46.6844	-49.2021	209.988	40.8577	-72.3002	207.613	72.8633	30.4711	211.413	70.4525	59.6966	174.644	84.6117	49.8935	
49	0.408333	135.693	61.3092	55.9166	109.19	58.6061	33.0486	87.8076	54.6881	10.651	79.1103	51.104	-14.8828	143.452	94.2632	-20.3911	134.47	91.3263	-53.2771	128.974	75.8524	-78.8363	169.386	94.1623	-27.8896	168.987	87.6787	-68.2142	160.643	70.3874	-93.2656	194.334	80.1581	-31.9744	188.819	77.3375	-59.1246	182.054	61.6041	-89.6593	210.068	61.2981	-19.4171	213.34	52.3904	-48.8313	206.41	47.4194	-71.6185	200.63	77.5322	28.7482	202.281	72.326	59.9801	168.598	85.799	51.3973	
50	0.416667	125.607	59.7191	56.2038	101.181	53.2384	36.8756	83.1501	49.754	11.1879	72.5266	46.5852	-15.1526	132.133	94.4436	-20.5389	124.159	90.7263	-50.351	120.525	75.2578	-75.3474	160.804	94.9928	-32.3227	156.932	89.2847	-63.1599	156.672	68.7248	-93.277	187.415	81.8216	-30.6259	183.731	77.7535	-58.0947	177.337	61.6075	-88.4853	204.391	62.9289	-20.7564	203.267	57.7221	-48.8114	204.094	45.7492	-71.9444	189.983	80.5886	27.3451	195.652	76.2837	60.0514	161.865	83.6327	52.2218	
51	0.425	118.913	55.2421	60.8319	97.5174	49.8707	35.3184	80.0732	42.8312	10.6757	69.4832	38.4479	-14.5784	126.637	88.9127	-18.2488	118.871	84.24	-47.3869	110.689	67.8472	-74.6467	153.852	90.2429	-27.7779	149.508	84.9959	-62.3014	143.679	64.5587	-94.0521	181.033	79.3409	-28.9	173.901	74.6682	-61.1317	171.144	58.2007	-87.7804	198.056	62.5259	-21.4942	201.597	53.8551	-45.2113	197.405	45.2237	-74.177	183.267	80.2731	27.9392	192.069	75.3732	61.3511	151.847	84.2239	52.3464	
52	0.433333	112.831	54.4274	60.2334	89.6134	43.933	38.648	74.6593	36.536	10.4269	62.6061	29.0807	-10.4531	118.355	82.1341	-23.0606	107.587	76.0983	-50.9298	107.934	56.4719	-77.6715	147.504	85.297	-32.279	140.745	77.1659	-63.1167	141.594	55.5144	-92.9581	170.351	75.507	-31.8364	168.924	67.9307	-59.2107	164.804	50.5175	-87.0003	191.427	59.5252	-19.0872	193.333	50.8035	-46.0494	192.061	40.9398	-70.2243	178.659	78.7289	28.8553	180.768	75.1074	64.4852	146.403	80.9369	50.5975	
53	0.441667	107.094	50.4784	62.3241	82.2353	38.4173	42.886	66.7608	27.5853	17.2142	55.9307	19.2047	-9.63809	111.2	73.2955	-19.629	104.906	66.3412	-47.5195	102.713	47.0839	-72.4631	137.327	76.2859	-30.3454	136.445	64.9961	-66.862	136.797	44.0413	-91.2156	165.872	66.6891	-32.5818	164.658	57.6636	-57.6091	155.33	38.5829	-84.8684	187.703	52.5778	-16.3785	191.636	41.6094	-41.3962	186.706	32.9845	-65.8695	171.055	75.6022	31.4003	173.783	75.4684	63.0767	135.603	79.9686	50.5573	
54	0.45	103.803	46.6403	63.6431	81.0294	33.0906	46.5119	61.1747	20.8538	18.4314	52.1456	9.02302	0.0575371	104.527	63.2001	-23.5536	95.6969	52.0023	-50.7738	94.8729	33.6141	-70.7417	131.577	66.1043	-32.5232	129.657	51.6439	-65.9214	127.519	30.7525	-87.332	156.306	57.1442	-31.4748	160.072	46.0301	-55.8151	153.344	27.128	-79.0179	181.056	45.3039	-18.1121	183.489	31.5296	-41.5854	183.881	17.1975	-66.0361	160.722	70.8356	28.4852	168.132	73.9492	63.0243	128.108	76.8683	47.4018	
55	0.458333	98.0755	42.1867	65.6528	74.8311	27.654	47.2347	55.6645	11.8319	26.6986	48.516	-1.51291	2.42036	95.6447	51.0795	-19.2782	91.2114	38.2655	-45.9292	89.1476	18.5811	-65.4678	125.319	54.357	-29.6877	123.064	38.6863	-60.2734	123.841	11.886	-84.925	153.189	47.1849	-25.8243	147.955	32.2972	-54.4632	150.181	11.0086	-75.6588	173.899	36.9496	-11.9452	179.903	19.8931	-36.6193	175.478	6.57738	-57.6642	155.486	66.531	29.0866	160.531	70.5779	64.2852	119.015	70.5215	49.3791	
56	0.466667	91.5955	39.2426	69.2941	67.8091	21.1386	53.8496	51.2826	4.84449	30.7507	42.3893	-10.7082	11.5345	91.2631	39.5946	-16.8369	82.7526	25.6287	-38.3873	81.548	1.03287	-60.1077	118.589	43.6833	-26.0855	118.824	26.2347	-54.2304	117.139	-1.62061	-76.4611	142.823	37.4794	-22.2543	146.835	20.6504	-49.0202	144.944	-3.29489	-66.9121	165.682	28.5814	-9.45342	173.656	10.1177	-30.3129	172.99	-10.1512	-48.7476	150.329	60.2211	33.0884	153.528	69.4578	64.0231	116.095	65.5081	50.0988	
57	0.475	86.175	38.137	74.8616	60.7228	19.8835	58.1135	41.6186	-0.0889419	36.2788	37.8454	-14.8881	22.4366	83.3008	31.9512	-10.1011	77.971	14.3597	-34.9276	77.1591	-13.0379	-51.6106	114.715	32.8651	-22.7705	110.503	11.7057	-51.6675	111.798	-16.302	-68.0618	140.355	27.0554	-18.232	139.297	8.82499	-42.1039	132.376	-18.9346	-58.7971	164.02	18.6525	-6.66718	162.521	-0.528002	-24.7139	161.659	-25.8505	-42.4563	141.871	55.869	34.9931	149.344	65.821	62.0232	112.206	62.4627	51.7617	
58	0.483333	82.737	40.4465	75.4689	56.81	23.1927	66.7866	35.2101	4.5323	47.9497	29.7446	-14.2342	28.9577	80.9633	25.9395	-6.00336	68.7432	5.76064	-28.7881	66.6498	-20.8271	-40.9261	109.159	24.6375	-16.9442	106.381	-1.73701	-45.384	98.521	-32.7615	-59.0104	130.365	16.9641	-14.4657	132.886	-7.64234	-35.3674	124.056	-33.4868	-46.143	157.227	7.91979	0.118528	155.736	-15.7516	-17.3046	150.821	-40.6218	-29.173	142.815	48.3605	37.8003	149.282	63.375	67.5186	110.403	61.6691	54.8782	
59	0.491667	82.6583	46.4534	77.8479	51.4803	32.7957	69.8759	34.6417	11.3375	49.0305	22.1025	-5.56196	37.5444	74.0036	24.5546	-1.93115	65.9397	2.79432	-21.4246	61.4846	-26.8045	-32.117	103.592	14.8793	-15.6356	96.8118	-11.404	-36.8814	89.5662	-41.2612	-45.5427	127.712	5.78347	-10.4679	123.338	-19.5662	-27.2755	112.962	-48.0152	-31.9395	150.195	-2.25755	7.41553	145.701	-28.6671	-6.51246	132.466	-51.8782	-11.894	138.892	42.0461	34.6153	149.711	60.6335	65.9339	112.518	62.995	54.2405	
